<?xml version="1.0" standalone="no"?>
<!DOCTYPE svg PUBLIC "-//W3C//DTD SVG 20010904//EN"
 "http://www.w3.org/TR/2001/REC-SVG-20010904/DTD/svg10.dtd">
<svg version="1.0" xmlns="http://www.w3.org/2000/svg"
 width="24.000000pt" height="24.000000pt" viewBox="0 0 24.000000 24.000000"
 preserveAspectRatio="xMidYMid meet">

<g transform="translate(0.000000,24.000000) scale(0.100000,-0.100000)"
fill="#000000" stroke="none">
<path d="M17 211 c-13 -22 -17 -52 -17 -120 l0 -91 120 0 120 0 0 91 c0 68 -4
98 -17 120 -17 28 -19 29 -103 29 -84 0 -86 -1 -103 -29z m93 -6 c0 -11 -11
-15 -40 -15 -31 0 -38 3 -34 15 8 21 74 21 74 0z m94 0 c4 -12 -3 -15 -34 -15
-29 0 -40 4 -40 15 0 21 66 21 74 0z m16 -110 l0 -75 -100 0 -100 0 0 75 0 75
100 0 100 0 0 -75z"/>
<path d="M70 130 c0 -5 23 -10 50 -10 28 0 50 5 50 10 0 6 -22 10 -50 10 -27
0 -50 -4 -50 -10z"/>
</g>
</svg>
