<?xml version="1.0" standalone="no"?>
<!DOCTYPE svg PUBLIC "-//W3C//DTD SVG 20010904//EN"
 "http://www.w3.org/TR/2001/REC-SVG-20010904/DTD/svg10.dtd">
<svg version="1.0" xmlns="http://www.w3.org/2000/svg"
 width="24.000000pt" height="24.000000pt" viewBox="0 0 24.000000 24.000000"
 preserveAspectRatio="xMidYMid meet">

<g transform="translate(0.000000,24.000000) scale(0.100000,-0.100000)"
fill="#000000" stroke="none">
<path d="M65 195 c-14 -13 -25 -35 -25 -49 0 -13 -4 -26 -9 -28 -4 -1 0 -22
10 -45 l18 -43 61 0 61 0 18 43 c10 23 14 44 10 45 -5 2 -9 15 -9 28 0 35 -42
74 -80 74 -19 0 -40 -9 -55 -25z m75 -5 c0 -5 7 -10 15 -10 9 0 12 -6 9 -15
-4 -8 -1 -15 5 -15 6 0 11 -7 11 -15 0 -12 -13 -15 -60 -15 -47 0 -60 3 -60
15 0 8 5 15 11 15 6 0 9 7 5 15 -3 9 0 15 9 15 8 0 15 5 15 10 0 6 9 10 20 10
11 0 20 -4 20 -10z m-60 -99 c0 -5 3 -16 6 -25 10 -26 -12 -18 -24 9 -10 21
-9 25 3 25 8 0 15 -4 15 -9z m54 -13 c-7 -26 -12 -33 -18 -27 -2 2 -7 14 -10
27 -6 18 -4 22 14 22 18 0 20 -4 14 -22z m44 -3 c-12 -27 -34 -35 -24 -9 3 9
6 20 6 25 0 5 7 9 15 9 12 0 13 -4 3 -25z"/>
<path d="M110 170 c0 -5 5 -10 10 -10 6 0 10 5 10 10 0 6 -4 10 -10 10 -5 0
-10 -4 -10 -10z"/>
<path d="M90 140 c0 -5 5 -10 10 -10 6 0 10 5 10 10 0 6 -4 10 -10 10 -5 0
-10 -4 -10 -10z"/>
<path d="M130 140 c0 -5 5 -10 10 -10 6 0 10 5 10 10 0 6 -4 10 -10 10 -5 0
-10 -4 -10 -10z"/>
</g>
</svg>
