<?xml version="1.0" standalone="no"?>
<!DOCTYPE svg PUBLIC "-//W3C//DTD SVG 20010904//EN"
 "http://www.w3.org/TR/2001/REC-SVG-20010904/DTD/svg10.dtd">
<svg version="1.0" xmlns="http://www.w3.org/2000/svg"
 width="24.000000pt" height="24.000000pt" viewBox="0 0 24.000000 24.000000"
 preserveAspectRatio="xMidYMid meet">

<g transform="translate(0.000000,24.000000) scale(0.100000,-0.100000)"
fill="#000000" stroke="none">
<path d="M17 172 c-14 -15 -16 -31 -11 -80 5 -40 11 -62 19 -62 7 0 15 -7 19
-15 7 -19 45 -19 52 0 4 8 12 15 20 15 11 0 14 17 14 70 0 63 -2 70 -19 70
-11 0 -23 5 -26 10 -10 16 -51 11 -68 -8z m68 -37 c0 -27 -3 -30 -30 -30 -21
0 -31 5 -33 18 -6 33 6 49 35 45 24 -3 28 -8 28 -33z m-5 -105 c0 -5 -4 -10
-10 -10 -5 0 -10 5 -10 10 0 6 5 10 10 10 6 0 10 -4 10 -10z"/>
<path d="M50 146 c0 -8 4 -17 9 -20 5 -4 7 3 4 14 -6 23 -13 26 -13 6z"/>
<path d="M140 95 c0 -83 43 -122 83 -75 38 44 2 130 -54 130 -29 0 -29 -1 -29
-55z m70 15 c9 -18 8 -20 -15 -20 -18 0 -25 5 -25 20 0 11 7 20 15 20 8 0 19
-9 25 -20z m-10 -80 c0 -5 -4 -10 -10 -10 -5 0 -10 5 -10 10 0 6 5 10 10 10 6
0 10 -4 10 -10z"/>
</g>
</svg>
